<mxfile host="app.diagrams.net" modified="2021-02-08T17:59:38.269Z" agent="5.0 (Macintosh; Intel Mac OS X 10_15_6) AppleWebKit/605.1.15 (KHTML, like Gecko) Version/14.0.1 Safari/605.1.15" etag="xGJfiPFGhcqPykP48dlB" version="14.3.0" type="github">
  <diagram id="R2lEEEUBdFMjLlhIrx00" name="Page-1">
    <mxGraphModel dx="1260" dy="797" grid="1" gridSize="10" guides="1" tooltips="1" connect="1" arrows="1" fold="1" page="1" pageScale="1" pageWidth="1169" pageHeight="827" math="0" shadow="0" extFonts="Permanent Marker^https://fonts.googleapis.com/css?family=Permanent+Marker">
      <root>
        <mxCell id="0" />
        <mxCell id="1" parent="0" />
        <mxCell id="Y8yPPuU184hUhB0sjw1A-1" value="User&lt;br&gt;" style="whiteSpace=wrap;html=1;align=center;" vertex="1" parent="1">
          <mxGeometry x="180" y="270" width="100" height="40" as="geometry" />
        </mxCell>
        <mxCell id="Y8yPPuU184hUhB0sjw1A-7" value="&lt;u&gt;email&lt;/u&gt;" style="ellipse;whiteSpace=wrap;html=1;align=center;" vertex="1" parent="1">
          <mxGeometry x="100" y="340" width="100" height="40" as="geometry" />
        </mxCell>
        <mxCell id="Y8yPPuU184hUhB0sjw1A-9" value="uId" style="ellipse;whiteSpace=wrap;html=1;align=center;" vertex="1" parent="1">
          <mxGeometry x="100" y="200" width="100" height="40" as="geometry" />
        </mxCell>
        <mxCell id="Y8yPPuU184hUhB0sjw1A-10" value="Member" style="whiteSpace=wrap;html=1;align=center;" vertex="1" parent="1">
          <mxGeometry x="470" y="270" width="100" height="40" as="geometry" />
        </mxCell>
        <mxCell id="Y8yPPuU184hUhB0sjw1A-11" value="uId" style="ellipse;whiteSpace=wrap;html=1;align=center;" vertex="1" parent="1">
          <mxGeometry x="340" y="200" width="100" height="40" as="geometry" />
        </mxCell>
        <mxCell id="Y8yPPuU184hUhB0sjw1A-12" value="firstName" style="ellipse;whiteSpace=wrap;html=1;align=center;" vertex="1" parent="1">
          <mxGeometry x="460" y="210" width="75" height="30" as="geometry" />
        </mxCell>
        <mxCell id="Y8yPPuU184hUhB0sjw1A-14" value="lastName" style="ellipse;whiteSpace=wrap;html=1;align=center;" vertex="1" parent="1">
          <mxGeometry x="547" y="210" width="75" height="30" as="geometry" />
        </mxCell>
        <mxCell id="Y8yPPuU184hUhB0sjw1A-15" value="street" style="ellipse;whiteSpace=wrap;html=1;align=center;" vertex="1" parent="1">
          <mxGeometry x="590" y="260" width="75" height="30" as="geometry" />
        </mxCell>
        <mxCell id="Y8yPPuU184hUhB0sjw1A-16" value="city" style="ellipse;whiteSpace=wrap;html=1;align=center;" vertex="1" parent="1">
          <mxGeometry x="600" y="300" width="75" height="30" as="geometry" />
        </mxCell>
        <mxCell id="Y8yPPuU184hUhB0sjw1A-17" value="postalCode" style="ellipse;whiteSpace=wrap;html=1;align=center;" vertex="1" parent="1">
          <mxGeometry x="525" y="330" width="75" height="30" as="geometry" />
        </mxCell>
        <mxCell id="Y8yPPuU184hUhB0sjw1A-18" value="birthDate" style="ellipse;whiteSpace=wrap;html=1;align=center;" vertex="1" parent="1">
          <mxGeometry x="440" y="330" width="75" height="30" as="geometry" />
        </mxCell>
        <mxCell id="Y8yPPuU184hUhB0sjw1A-19" value="birthDate" style="ellipse;whiteSpace=wrap;html=1;align=center;" vertex="1" parent="1">
          <mxGeometry x="345" y="330" width="75" height="30" as="geometry" />
        </mxCell>
        <mxCell id="Y8yPPuU184hUhB0sjw1A-20" value="technicalEmail" style="ellipse;whiteSpace=wrap;html=1;align=center;" vertex="1" parent="1">
          <mxGeometry x="310" y="250" width="100" height="40" as="geometry" />
        </mxCell>
        <mxCell id="Y8yPPuU184hUhB0sjw1A-21" value="email" style="ellipse;whiteSpace=wrap;html=1;align=center;" vertex="1" parent="1">
          <mxGeometry x="345" y="290" width="100" height="40" as="geometry" />
        </mxCell>
        <mxCell id="Y8yPPuU184hUhB0sjw1A-22" value="phoneNumber" style="ellipse;whiteSpace=wrap;html=1;align=center;" vertex="1" parent="1">
          <mxGeometry x="420" y="374" width="100" height="40" as="geometry" />
        </mxCell>
        <mxCell id="Y8yPPuU184hUhB0sjw1A-23" value="mobileNumber" style="ellipse;whiteSpace=wrap;html=1;align=center;" vertex="1" parent="1">
          <mxGeometry x="535" y="374" width="100" height="40" as="geometry" />
        </mxCell>
        <mxCell id="Y8yPPuU184hUhB0sjw1A-24" value="isActive" style="ellipse;whiteSpace=wrap;html=1;align=center;" vertex="1" parent="1">
          <mxGeometry x="620" y="340" width="100" height="40" as="geometry" />
        </mxCell>
        <mxCell id="Y8yPPuU184hUhB0sjw1A-25" value="telegramChatId" style="ellipse;whiteSpace=wrap;html=1;align=center;" vertex="1" parent="1">
          <mxGeometry x="300" y="370" width="100" height="40" as="geometry" />
        </mxCell>
        <mxCell id="Y8yPPuU184hUhB0sjw1A-26" value="displayName" style="ellipse;whiteSpace=wrap;html=1;align=center;" vertex="1" parent="1">
          <mxGeometry x="635" y="210" width="100" height="40" as="geometry" />
        </mxCell>
        <mxCell id="Y8yPPuU184hUhB0sjw1A-27" value="photoUrl" style="ellipse;whiteSpace=wrap;html=1;align=center;" vertex="1" parent="1">
          <mxGeometry x="640" y="390" width="100" height="40" as="geometry" />
        </mxCell>
        <mxCell id="Y8yPPuU184hUhB0sjw1A-28" value="gender" style="ellipse;whiteSpace=wrap;html=1;align=center;" vertex="1" parent="1">
          <mxGeometry x="390" y="420" width="100" height="40" as="geometry" />
        </mxCell>
        <mxCell id="Y8yPPuU184hUhB0sjw1A-31" value="Permission" style="whiteSpace=wrap;html=1;align=center;" vertex="1" parent="1">
          <mxGeometry x="820" y="90" width="100" height="40" as="geometry" />
        </mxCell>
        <mxCell id="Y8yPPuU184hUhB0sjw1A-32" value="name&lt;br&gt;" style="ellipse;whiteSpace=wrap;html=1;align=center;" vertex="1" parent="1">
          <mxGeometry x="760" y="40" width="100" height="40" as="geometry" />
        </mxCell>
        <mxCell id="Y8yPPuU184hUhB0sjw1A-33" value="description" style="ellipse;whiteSpace=wrap;html=1;align=center;" vertex="1" parent="1">
          <mxGeometry x="900" y="40" width="100" height="40" as="geometry" />
        </mxCell>
        <mxCell id="Y8yPPuU184hUhB0sjw1A-34" value="id&lt;br&gt;" style="ellipse;whiteSpace=wrap;html=1;align=center;" vertex="1" parent="1">
          <mxGeometry x="740" y="140" width="100" height="40" as="geometry" />
        </mxCell>
        <mxCell id="Y8yPPuU184hUhB0sjw1A-35" value="Role" style="whiteSpace=wrap;html=1;align=center;" vertex="1" parent="1">
          <mxGeometry x="935" y="210" width="100" height="40" as="geometry" />
        </mxCell>
        <mxCell id="Y8yPPuU184hUhB0sjw1A-36" value="permissionIds" style="ellipse;whiteSpace=wrap;html=1;align=center;" vertex="1" parent="1">
          <mxGeometry x="805" y="210" width="100" height="40" as="geometry" />
        </mxCell>
        <mxCell id="Y8yPPuU184hUhB0sjw1A-37" value="id&lt;br&gt;" style="ellipse;whiteSpace=wrap;html=1;align=center;" vertex="1" parent="1">
          <mxGeometry x="925" y="150" width="100" height="40" as="geometry" />
        </mxCell>
        <mxCell id="Y8yPPuU184hUhB0sjw1A-38" value="name&lt;br&gt;" style="ellipse;whiteSpace=wrap;html=1;align=center;" vertex="1" parent="1">
          <mxGeometry x="855" y="270" width="100" height="40" as="geometry" />
        </mxCell>
        <mxCell id="Y8yPPuU184hUhB0sjw1A-39" value="description" style="ellipse;whiteSpace=wrap;html=1;align=center;" vertex="1" parent="1">
          <mxGeometry x="995" y="270" width="100" height="40" as="geometry" />
        </mxCell>
        <mxCell id="Y8yPPuU184hUhB0sjw1A-40" value="roleIds" style="ellipse;whiteSpace=wrap;html=1;align=center;" vertex="1" parent="1">
          <mxGeometry x="525" y="430" width="100" height="40" as="geometry" />
        </mxCell>
        <mxCell id="Y8yPPuU184hUhB0sjw1A-49" value="" style="edgeStyle=orthogonalEdgeStyle;rounded=0;orthogonalLoop=1;jettySize=auto;html=1;entryX=0.5;entryY=1;entryDx=0;entryDy=0;entryPerimeter=0;" edge="1" parent="1" source="Y8yPPuU184hUhB0sjw1A-45">
          <mxGeometry relative="1" as="geometry">
            <mxPoint x="445" y="625.9999999999999" as="targetPoint" />
          </mxGeometry>
        </mxCell>
        <mxCell id="Y8yPPuU184hUhB0sjw1A-50" value="Group" style="whiteSpace=wrap;html=1;align=center;" vertex="1" parent="1">
          <mxGeometry x="940" y="440" width="100" height="40" as="geometry" />
        </mxCell>
        <mxCell id="Y8yPPuU184hUhB0sjw1A-51" value="id&lt;br&gt;" style="ellipse;whiteSpace=wrap;html=1;align=center;" vertex="1" parent="1">
          <mxGeometry x="810" y="410" width="100" height="40" as="geometry" />
        </mxCell>
        <mxCell id="Y8yPPuU184hUhB0sjw1A-52" value="name&lt;br&gt;" style="ellipse;whiteSpace=wrap;html=1;align=center;" vertex="1" parent="1">
          <mxGeometry x="929" y="370" width="100" height="40" as="geometry" />
        </mxCell>
        <mxCell id="Y8yPPuU184hUhB0sjw1A-53" value="description" style="ellipse;whiteSpace=wrap;html=1;align=center;" vertex="1" parent="1">
          <mxGeometry x="1060" y="374" width="100" height="40" as="geometry" />
        </mxCell>
        <mxCell id="Y8yPPuU184hUhB0sjw1A-54" value="groupIds" style="ellipse;whiteSpace=wrap;html=1;align=center;" vertex="1" parent="1">
          <mxGeometry x="680" y="270" width="100" height="40" as="geometry" />
        </mxCell>
        <mxCell id="Y8yPPuU184hUhB0sjw1A-58" value="groupId" style="ellipse;whiteSpace=wrap;html=1;align=center;" vertex="1" parent="1">
          <mxGeometry x="1060" y="190" width="100" height="40" as="geometry" />
        </mxCell>
        <mxCell id="Y8yPPuU184hUhB0sjw1A-59" value="childGroupIds" style="ellipse;whiteSpace=wrap;html=1;align=center;" vertex="1" parent="1">
          <mxGeometry x="1060" y="470" width="100" height="40" as="geometry" />
        </mxCell>
        <mxCell id="Y8yPPuU184hUhB0sjw1A-60" value="Event" style="whiteSpace=wrap;html=1;align=center;" vertex="1" parent="1">
          <mxGeometry x="610" y="630" width="100" height="40" as="geometry" />
        </mxCell>
      </root>
    </mxGraphModel>
  </diagram>
</mxfile>
